<?xml version="1.0" standalone="no"?>
<!DOCTYPE svg PUBLIC "-//W3C//DTD SVG 20010904//EN"
 "http://www.w3.org/TR/2001/REC-SVG-20010904/DTD/svg10.dtd">
<svg version="1.0" xmlns="http://www.w3.org/2000/svg"
 width="500.000000pt" height="500.000000pt" viewBox="0 0 500.000000 500.000000"
 preserveAspectRatio="xMidYMid meet">
<metadata>
Created by potrace 1.11, written by Peter Selinger 2001-2013
</metadata>
<g transform="translate(0.000000,500.000000) scale(0.100000,-0.100000)"
fill="#000000" stroke="none">
<path d="M2311 4989 c-473 -34 -959 -222 -1341 -517 -116 -90 -316 -286 -410
-403 -206 -256 -365 -559 -454 -869 -59 -202 -97 -433 -94 -570 1 -62 2 -65 5
-20 28 490 221 1002 518 1370 226 280 472 489 765 648 282 153 679 273 940
285 52 3 79 3 60 1 -200 -23 -458 -81 -617 -139 -128 -48 -375 -169 -485 -238
-290 -183 -574 -468 -755 -758 -138 -220 -259 -524 -313 -781 -69 -331 -65
-704 10 -1028 53 -226 150 -464 275 -675 l45 -77 -30 -35 c-36 -41 -41 -28 70
-178 248 -335 608 -623 985 -787 118 -51 117 -51 130 12 4 19 22 66 41 105 26
56 74 211 74 240 0 4 4 3 10 0 5 -3 12 6 16 20 3 14 10 25 15 25 5 0 9 5 9 12
0 15 53 122 63 126 4 2 5 8 1 13 -3 5 0 9 5 9 6 0 11 8 11 17 0 15 2 14 14 -2
13 -18 15 -17 30 19 9 21 16 47 16 58 0 27 33 122 89 252 51 118 61 157 62
241 2 87 3 89 61 59 65 -33 139 -39 162 -13 9 11 24 19 33 19 9 0 31 13 48 30
17 16 40 31 51 33 12 1 33 10 47 20 15 9 31 17 37 17 5 0 10 5 10 12 0 6 3 9
6 6 3 -3 15 3 27 14 50 44 123 92 147 94 29 3 48 8 72 18 9 4 22 9 30 10 30 5
78 38 138 95 35 34 67 58 71 54 4 -5 4 -38 0 -76 -6 -58 -12 -72 -43 -105 -43
-46 -84 -106 -133 -197 -53 -98 -51 -94 -73 -155 -35 -100 -41 -124 -47 -185
-4 -33 -13 -78 -20 -100 -35 -98 -75 -317 -75 -409 0 -42 -7 -71 -24 -105 -14
-25 -31 -62 -39 -81 -8 -19 -35 -82 -60 -140 -48 -110 -97 -247 -97 -270 0
-18 291 -7 465 19 706 105 1329 504 1725 1106 82 126 126 207 108 200 -7 -3
-19 -1 -26 3 -9 6 3 41 47 138 158 345 221 622 221 974 0 287 -31 504 -107
742 -303 958 -1173 1623 -2191 1674 l-132 7 0 59 0 58 53 -5 c28 -2 94 -7 146
-10 289 -18 629 -114 919 -259 61 -31 112 -54 112 -51 0 10 -282 143 -385 181
-200 74 -450 126 -685 144 -149 11 -192 11 -359 -1z m102 -66 c-7 -2 -21 -2
-30 0 -10 3 -4 5 12 5 17 0 24 -2 18 -5z m147 -118 c0 -2 -22 -16 -49 -30 -27
-13 -65 -35 -84 -48 -26 -18 -56 -26 -114 -31 -114 -10 -320 -52 -451 -92 -63
-19 -118 -31 -122 -27 -4 4 -14 29 -23 55 l-15 47 61 20 c155 49 327 86 452
97 44 4 82 8 84 10 6 6 261 5 261 -1z m415 -46 c36 -14 -36 -9 -80 6 l-40 14
50 -6 c28 -3 59 -9 70 -14z m390 -112 c343 -125 745 -425 974 -725 325 -427
485 -889 485 -1402 0 -269 -34 -484 -115 -725 -40 -119 -157 -376 -177 -389
-27 -17 -17 21 34 129 397 834 221 1845 -436 2505 -124 124 -228 210 -362 297
-88 57 -279 159 -369 196 -22 9 -49 33 -68 60 -17 25 -46 57 -63 71 l-33 25
45 -13 c25 -8 63 -21 85 -29z m-1155 -37 c0 -5 -16 -10 -35 -10 -52 0 -83 -19
-115 -72 -17 -28 -37 -48 -47 -48 -30 0 -273 -86 -365 -128 -120 -55 -262
-140 -366 -219 -48 -36 -92 -67 -98 -70 -6 -2 -27 16 -47 41 l-37 44 68 50
c252 187 601 345 872 395 47 9 94 18 105 20 38 8 65 7 65 -3z m1120 -72 c0
-24 -39 16 -40 41 0 9 7 6 20 -9 11 -13 20 -27 20 -32z m-1210 28 c0 -3 -4 -8
-10 -11 -5 -3 -10 -1 -10 4 0 6 5 11 10 11 6 0 10 -2 10 -4z m-675 -69 c-11
-8 -47 -29 -80 -47 -212 -118 -459 -330 -624 -535 -152 -189 -311 -476 -380
-684 -195 -590 -152 -1185 127 -1735 l86 -168 -24 -18 c-14 -10 -28 -16 -32
-14 -14 9 -97 168 -142 274 -88 206 -153 456 -177 679 -16 156 -7 443 20 591
104 590 411 1096 874 1443 107 81 340 227 361 227 6 0 2 -6 -9 -13z m2240
-214 c456 -300 773 -747 905 -1273 52 -208 63 -311 57 -540 -8 -354 -66 -589
-220 -902 -64 -130 -75 -147 -99 -150 -16 -3 -28 -1 -28 4 0 4 8 8 18 8 36 0
174 314 226 513 45 174 58 266 63 468 11 404 -61 711 -248 1051 -150 273 -336
488 -583 672 -48 36 -106 86 -127 110 -22 24 -50 46 -66 49 -33 6 -58 27 -98
81 l-29 38 69 -35 c39 -19 111 -62 160 -94z m-1685 103 c0 -31 -14 -78 -24
-81 -473 -156 -835 -431 -1072 -815 -20 -33 -40 -60 -43 -60 -4 0 -28 14 -54
30 l-48 30 70 103 c242 353 601 624 1013 762 146 49 158 51 158 31z m793 -34
c14 -12 117 -47 165 -57 17 -4 32 -13 32 -20 0 -18 7 -22 60 -29 61 -9 119
-24 98 -25 -24 -1 -23 -21 1 -21 11 0 26 -7 35 -15 8 -8 21 -15 30 -15 18 0
46 -38 46 -62 0 -11 5 -15 14 -12 7 3 16 -2 20 -11 3 -9 11 -13 17 -10 6 4 9
1 8 -6 -3 -21 12 -50 22 -43 8 5 30 -36 63 -116 3 -8 10 -22 14 -30 33 -59 41
-80 28 -80 -10 0 -11 -11 -6 -44 6 -38 4 -46 -16 -61 -14 -10 -20 -23 -17 -33
4 -10 2 -13 -5 -8 -7 4 -10 -4 -10 -23 1 -19 5 -28 12 -24 7 4 7 2 -1 -7 -7
-8 -8 -22 -3 -40 5 -16 6 -31 2 -34 -3 -3 3 -15 13 -26 18 -19 26 -66 29 -152
1 -21 5 -38 9 -38 4 0 7 -8 5 -17 -3 -15 15 -21 127 -38 115 -18 131 -23 140
-43 11 -25 25 -29 25 -8 0 14 58 56 77 56 15 0 86 -160 121 -270 91 -287 97
-627 16 -900 -38 -126 -58 -179 -113 -288 -65 -130 -74 -137 -91 -69 -12 50
-11 56 13 103 123 243 174 559 137 841 -12 83 -60 273 -70 273 -15 0 -36 -96
-28 -125 17 -59 38 -231 38 -310 0 -113 -17 -245 -46 -355 -28 -103 -81 -240
-94 -240 -4 0 -11 17 -15 38 -4 20 -12 43 -18 50 -8 10 -8 15 1 21 28 17 88
349 80 450 l-3 45 -43 -86 c-23 -47 -48 -112 -56 -145 -7 -32 -18 -57 -25 -55
-6 1 -11 -7 -11 -19 0 -20 -24 -23 -26 -3 -3 34 -18 84 -25 84 -5 0 -9 5 -9
10 0 19 23 10 46 -17 l24 -28 2 25 c2 44 3 48 10 55 4 4 2 15 -5 26 -9 14 -7
25 6 51 10 18 15 25 12 15 -3 -12 -1 -17 7 -15 7 3 14 13 14 24 1 10 5 32 9
48 6 21 5 27 -4 22 -18 -12 -13 13 9 36 14 15 17 25 9 34 -7 9 -3 20 16 39 30
33 29 32 10 32 -9 0 -29 -26 -46 -58 -33 -62 -105 -130 -177 -166 -48 -24 -78
-20 -118 18 -20 19 -20 19 -41 -33 -12 -29 -25 -64 -28 -77 -5 -17 -9 -20 -15
-11 -6 9 -22 -2 -59 -39 -31 -31 -59 -51 -73 -51 -23 0 -108 -78 -108 -99 0
-6 -3 -11 -8 -11 -4 0 -31 -31 -60 -70 -63 -85 -143 -150 -182 -150 -16 0 -32
-5 -35 -11 -12 -18 -57 -31 -66 -18 -5 8 -16 4 -35 -15 -16 -14 -36 -26 -46
-26 -9 0 -21 -6 -25 -13 -14 -24 -117 -73 -158 -75 -22 -1 -53 -4 -70 -7 -143
-21 -188 -15 -196 29 -2 10 -14 22 -26 27 -18 6 -21 5 -16 -8 5 -13 3 -13 -14
-4 -28 14 -64 59 -84 101 -51 110 -75 155 -94 174 -34 35 -65 92 -65 121 0 15
-13 47 -29 70 -34 51 -65 117 -92 195 l-19 55 6 -59 c8 -77 29 -159 59 -225
30 -64 30 -73 6 -95 -18 -16 -20 -16 -35 6 -26 36 -64 168 -75 257 -7 54 -7
107 0 164 8 68 7 97 -5 151 -9 37 -16 99 -16 139 0 82 -7 79 -43 -18 -49 -131
-60 -198 -54 -340 6 -146 26 -231 83 -354 l35 -76 -28 -22 c-15 -13 -31 -23
-34 -23 -13 0 -72 149 -95 240 -19 73 -25 122 -25 215 -1 181 35 324 117 474
20 37 38 84 40 110 3 25 7 55 9 67 5 24 -2 23 180 6 55 -6 116 -8 135 -6 112
11 139 17 168 34 33 20 91 93 117 147 20 41 45 55 85 47 37 -8 53 -31 69 -98
17 -68 44 -119 83 -151 50 -42 70 -49 278 -97 52 -12 96 -25 98 -29 2 -4 12
-5 23 -2 15 4 18 2 13 -12 -5 -13 -2 -16 17 -14 13 1 31 -1 39 -4 66 -25 190
-23 190 3 0 14 63 70 78 70 7 0 26 14 42 32 23 25 32 30 42 20 7 -7 16 -8 22
-3 13 11 47 -11 50 -32 1 -8 8 -22 16 -32 18 -21 15 -105 -5 -144 -8 -17 -14
-34 -13 -38 1 -4 -3 -26 -9 -48 -9 -36 -22 -120 -38 -245 l-5 -45 15 30 c9 17
36 45 60 64 32 26 47 46 56 79 8 29 20 47 35 54 18 8 22 17 19 39 -2 20 2 33
15 42 11 8 22 32 26 56 4 25 14 47 25 54 14 9 19 24 19 54 0 30 7 50 25 71 28
33 80 51 98 33 10 -10 57 -16 57 -7 0 2 3 12 6 20 4 12 -4 20 -30 31 -37 16
-51 13 -118 -22 -21 -11 -4 51 22 81 37 42 37 42 -106 51 -119 7 -139 1 -139
-40 0 -27 -3 -30 -39 -33 -22 -1 -46 -8 -53 -14 -10 -8 -13 -7 -14 3 0 10 -2
11 -6 2 -10 -26 -83 -4 -83 25 0 16 50 52 71 52 18 0 21 7 33 72 3 12 -17 23
-83 47 -47 17 -101 31 -118 31 -34 0 -82 17 -98 36 -5 6 -59 22 -120 35 -113
24 -242 29 -485 18 l-95 -4 -100 52 c-122 63 -251 106 -367 123 -49 7 -88 16
-88 20 0 5 11 22 24 37 22 25 31 28 83 27 32 0 69 -6 83 -14 14 -8 28 -13 33
-12 4 1 7 -4 7 -12 0 -8 6 -17 13 -19 6 -3 -1 -6 -18 -7 -28 -1 -27 -3 25 -30
59 -31 95 -38 87 -17 -2 6 -10 11 -16 10 -6 -2 -11 2 -11 7 0 6 5 10 10 10 21
0 29 44 11 64 -19 23 -92 56 -144 66 -43 9 -114 -6 -139 -28 -23 -19 -23 -11
1 30 10 18 22 49 26 68 11 54 73 208 111 277 50 88 149 179 217 196 82 23 232
54 352 74 111 18 212 16 238 -5z m809 -92 c13 -10 32 -26 43 -34 11 -8 17 -17
13 -21 -3 -4 -26 12 -50 34 -43 41 -48 58 -6 21z m-1673 -81 c-16 -48 -25 -55
-130 -103 -154 -70 -305 -168 -442 -289 -252 -223 -456 -570 -528 -901 -11
-50 -22 -92 -25 -95 -7 -7 -114 20 -114 28 0 5 11 51 24 102 132 520 491 962
969 1194 101 49 248 107 255 101 1 -2 -3 -18 -9 -37z m-930 -216 c-311 -323
-493 -680 -570 -1118 -29 -168 -32 -483 -5 -640 39 -233 105 -430 217 -644 38
-74 68 -135 67 -136 -2 -1 -13 -7 -25 -14 -20 -10 -25 -8 -47 27 -65 104 -159
330 -200 482 -176 654 -29 1343 401 1880 55 69 229 250 241 250 3 0 -33 -39
-79 -87z m876 55 c-8 -37 -29 -71 -37 -62 -9 8 -185 -100 -281 -172 -285 -214
-507 -572 -587 -949 -27 -127 -38 -414 -21 -535 7 -45 11 -84 9 -86 -2 -1 -29
-7 -60 -12 -55 -9 -56 -8 -62 17 -14 60 -18 351 -7 447 60 490 310 915 706
1199 82 59 311 185 336 185 7 0 8 -12 4 -32z m2065 -174 c471 -490 651 -1207
465 -1855 -26 -90 -85 -252 -90 -247 -2 2 14 55 36 118 161 467 131 981 -84
1432 -102 215 -199 351 -379 532 -65 65 -118 124 -118 130 0 6 -3 22 -7 36 -6
23 -3 22 43 -16 27 -23 87 -82 134 -130z m-2114 35 c-9 -19 -15 -29 -16 -22 0
18 20 66 25 61 3 -3 -1 -20 -9 -39z m-38 -107 c-16 -38 -186 -162 -222 -162
-44 0 -56 -10 -56 -46 0 -28 -12 -49 -63 -107 -163 -188 -274 -417 -328 -680
-18 -90 -20 -126 -16 -297 4 -162 9 -213 30 -301 25 -105 71 -229 127 -339 22
-44 26 -60 17 -68 -19 -15 -75 -42 -87 -42 -6 0 -29 37 -50 83 -114 247 -164
529 -140 790 24 271 108 512 257 735 108 163 343 381 495 459 48 24 55 19 36
-25z m2203 -261 c208 -309 311 -646 307 -1011 l-1 -145 -8 170 c-4 106 -15
211 -29 279 -57 286 -187 564 -365 782 -37 44 -55 75 -55 93 1 25 2 24 41 -19
22 -25 72 -92 110 -149z m-2053 54 c101 -24 216 -73 258 -110 l39 -34 -30 8
c-16 5 -61 23 -100 41 -82 39 -186 51 -259 30 -38 -10 -48 -19 -64 -54 l-20
-41 2 75 1 74 -45 18 -45 19 100 -6 c55 -3 128 -12 163 -20z m-264 -104 c-34
-32 -64 -64 -67 -72 -3 -8 -6 3 -6 24 -1 20 4 37 9 37 6 0 10 8 10 17 0 31 31
53 74 53 l41 -1 -61 -58z m2178 -13 c23 -35 60 -94 81 -133 46 -82 129 -284
124 -299 -2 -6 -10 7 -17 29 -26 80 -110 248 -174 346 -60 91 -75 119 -61 119
2 0 23 -28 47 -62z m-2002 -24 c0 -14 -42 -74 -58 -83 -9 -5 -14 -12 -11 -16
11 -11 123 -8 127 4 2 6 10 11 18 11 8 0 14 6 14 14 0 19 40 28 46 10 2 -8 6
-21 9 -29 10 -34 99 -46 150 -19 27 14 30 14 42 -2 7 -9 19 -14 28 -11 23 9
18 -12 -11 -55 -30 -43 -69 -58 -156 -58 -123 0 -267 29 -347 70 l-43 21 49
52 c27 29 55 50 65 49 9 -2 19 6 23 17 6 21 55 42 55 25z m-280 -35 c0 -22
-16 -53 -58 -108 -113 -150 -203 -364 -236 -560 -42 -247 -2 -532 103 -752 23
-46 41 -88 41 -94 -1 -5 -19 -22 -40 -37 l-40 -28 -14 23 c-31 46 -98 231
-122 334 -44 189 -43 433 2 631 33 142 118 334 198 447 53 73 144 175 157 175
5 0 9 -14 9 -31z m1345 6 c132 -30 230 -69 273 -108 16 -15 22 -32 22 -64 0
-24 -4 -43 -9 -43 -8 0 -130 76 -156 97 -26 22 -66 42 -130 68 -66 26 -78 28
-205 27 -151 -2 -198 4 -181 21 28 28 267 29 386 2z m275 -65 c0 -5 -7 -7 -15
-4 -8 4 -15 8 -15 10 0 2 7 4 15 4 8 0 15 -4 15 -10z m-622 -16 c23 -15 73
-15 147 1 l30 6 -30 -17 c-16 -10 -43 -20 -59 -23 -16 -4 -31 -11 -33 -16 -5
-15 78 -8 112 9 49 26 65 21 65 -18 0 -19 7 -41 15 -50 20 -20 76 -30 118 -22
18 3 37 3 41 -1 4 -5 11 -8 14 -9 4 0 25 -4 46 -9 25 -5 46 -4 56 3 14 9 25 5
54 -21 20 -18 36 -40 36 -49 0 -27 -58 -77 -97 -84 -55 -10 -261 2 -326 20
-64 18 -165 62 -184 82 -7 7 -23 10 -35 8 -19 -4 -21 -3 -8 7 14 10 13 17 -9
63 -13 28 -26 64 -28 80 -6 52 31 71 75 40z m699 -10 c-3 -3 -12 -4 -19 -1 -8
3 -5 6 6 6 11 1 17 -2 13 -5z m38 -14 c3 -6 -1 -7 -9 -4 -18 7 -21 14 -7 14 6
0 13 -4 16 -10z m-2605 -76 c-33 -76 -86 -260 -104 -359 -73 -408 -14 -822
172 -1194 37 -75 66 -140 64 -145 -2 -4 4 -6 13 -3 8 4 15 2 15 -3 0 -6 -14
-10 -31 -10 -29 0 -33 5 -94 132 -134 276 -195 543 -195 850 0 258 61 552 156
750 25 54 28 40 4 -18z m961 36 c18 -10 16 -15 -30 -78 -103 -141 -164 -290
-196 -476 -37 -214 2 -481 96 -668 16 -32 29 -61 29 -65 0 -8 -64 -53 -75 -53
-9 0 -53 106 -80 192 -108 341 -57 742 128 1018 39 59 100 140 105 140 2 0 12
-5 23 -10z m154 -62 c38 -11 72 -21 74 -24 3 -2 -39 -3 -92 -2 -76 2 -96 6
-92 16 3 8 5 20 5 29 0 10 5 13 18 8 9 -4 48 -16 87 -27z m1375 -184 c0 -33
-30 -47 -101 -48 -82 -1 -96 16 -21 26 29 5 65 15 80 23 35 18 42 18 42 -1z
m411 -55 l-20 -21 6 23 c3 13 11 30 17 38 9 12 11 12 14 -2 2 -9 -6 -26 -17
-38z m-604 15 c-3 -3 -12 -4 -19 -1 -8 3 -5 6 6 6 11 1 17 -2 13 -5z m1080
-16 c-3 -8 -6 -5 -6 6 -1 11 2 17 5 13 3 -3 4 -12 1 -19z m110 -235 c4 -43 7
-145 6 -228 -3 -262 -58 -494 -175 -733 l-60 -124 -47 7 c-25 4 -47 8 -49 9
-1 2 24 59 57 127 65 136 101 243 133 389 25 118 36 417 19 529 -6 40 -9 76
-6 79 5 5 62 17 102 21 7 1 14 -28 20 -76z m-3455 -153 c-8 -294 50 -562 180
-828 33 -68 58 -126 55 -129 -11 -11 -29 11 -62 78 -126 249 -185 503 -185
795 0 133 6 224 14 224 1 0 0 -63 -2 -140z m2718 -186 c0 -8 -5 -12 -10 -9 -6
4 -8 11 -5 16 9 14 15 11 15 -7z m24 -40 c3 -9 4 -20 1 -24 -8 -12 7 -19 48
-22 20 -1 39 -8 41 -15 5 -12 -12 -73 -20 -73 -3 0 -16 11 -30 25 -26 26 -33
29 -74 25 -14 -1 -22 1 -18 6 13 12 -13 34 -39 34 -13 0 -33 -4 -43 -10 -15
-8 -17 -6 -13 13 10 40 21 46 60 35 29 -8 39 -7 51 6 20 20 28 20 36 0z m-134
-139 c-7 -8 -17 -15 -22 -15 -6 0 -5 7 2 15 7 8 17 15 22 15 6 0 5 -7 -2 -15z
m986 -55 c-18 -116 -109 -367 -176 -487 -36 -64 -44 -73 -69 -73 -16 0 -39 8
-52 19 l-23 19 56 118 c63 133 98 229 128 359 11 48 22 91 25 95 2 4 30 2 61
-3 l56 -11 -6 -36z m-675 3 c11 -25 18 -54 16 -62 -3 -13 -5 -12 -11 4 -4 11
-12 29 -16 40 -14 33 -22 65 -15 65 3 0 15 -21 26 -47z m-280 7 c10 0 19 -4
19 -9 0 -12 -8 -16 -42 -25 -23 -5 -28 -3 -28 12 0 21 23 48 28 32 2 -5 12
-10 23 -10z m127 -14 c3 -12 -1 -17 -10 -14 -7 3 -15 13 -16 22 -3 12 1 17 10
14 7 -3 15 -13 16 -22z m91 -6 c11 -24 11 -24 -3 -6 -9 11 -16 24 -16 30 0 12
5 7 19 -24z m-2627 -145 c16 -49 51 -137 79 -194 54 -113 53 -111 40 -111 -10
0 -85 159 -112 239 -22 62 -60 205 -58 218 1 4 6 -8 11 -27 6 -19 24 -75 40
-125z m2658 90 c0 -8 -2 -15 -4 -15 -2 0 -6 7 -10 15 -3 8 -1 15 4 15 6 0 10
-7 10 -15z m17 -82 c-3 -10 -5 -4 -5 12 0 17 2 24 5 18 2 -7 2 -21 0 -30z
m163 -400 c0 -27 -4 -43 -8 -36 -8 12 -4 83 4 83 2 0 4 -21 4 -47z m438 -88
c12 -10 12 -16 0 -34 -14 -24 -28 -28 -28 -8 0 7 -13 28 -30 47 -16 19 -29 39
-30 43 0 9 65 -27 88 -48z m-441 3 c-3 -7 -5 -2 -5 12 0 14 2 19 5 13 2 -7 2
-19 0 -25z m584 -115 c13 -16 12 -17 -3 -4 -17 13 -22 21 -14 21 2 0 10 -8 17
-17z"/>
<path d="M2958 4273 c7 -3 16 -2 19 1 4 3 -2 6 -13 5 -11 0 -14 -3 -6 -6z"/>
<path d="M2718 3603 c-16 -2 -28 -8 -28 -13 0 -17 41 -31 70 -25 16 3 44 7 62
7 50 1 55 9 12 24 -39 14 -63 15 -116 7z"/>
<path d="M2885 3580 c3 -5 8 -10 11 -10 2 0 4 5 4 10 0 6 -5 10 -11 10 -5 0
-7 -4 -4 -10z"/>
<path d="M2966 3576 c10 -8 21 -12 24 -10 5 6 -21 24 -34 24 -6 0 -1 -6 10
-14z"/>
<path d="M3031 3554 c6 -7 15 -11 20 -8 5 3 9 2 9 -3 0 -10 89 -67 96 -61 19
20 -46 66 -114 81 -19 5 -21 3 -11 -9z"/>
<path d="M2046 2807 c-11 -43 -6 -64 27 -94 66 -64 147 -78 239 -43 57 21 110
25 170 11 41 -10 60 0 72 34 6 16 5 18 -5 8 -19 -19 -32 -16 -65 12 -16 14
-43 28 -60 31 -31 6 -101 -8 -141 -28 -17 -8 -25 -7 -38 6 -17 16 -40 23 -31
8 3 -5 -1 -9 -9 -9 -8 0 -15 6 -15 14 0 7 -11 13 -23 13 -13 0 -32 9 -41 19
-10 11 -31 24 -46 30 -25 8 -29 7 -34 -12z"/>
<path d="M1870 2591 c-14 -28 -12 -41 6 -41 24 0 45 32 32 47 -15 18 -26 16
-38 -6z"/>
<path d="M1917 2534 c-8 -9 4 -37 25 -55 10 -9 18 -19 18 -23 0 -4 8 -16 19
-27 10 -11 17 -29 14 -39 -7 -26 15 -87 52 -146 33 -51 85 -85 174 -113 58
-18 172 -14 219 9 22 11 45 20 50 20 5 0 19 11 32 25 13 14 18 25 12 25 -7 0
-11 12 -10 30 1 17 8 30 15 30 7 0 13 4 13 10 0 12 -161 10 -177 -3 -9 -6 -28
-6 -55 1 -23 6 -45 8 -48 3 -3 -4 -13 -10 -22 -14 -10 -3 -18 -13 -18 -22 0
-18 -21 -20 -38 -3 -17 17 -15 28 7 28 16 0 10 11 -29 51 -44 46 -71 101 -56
116 3 4 15 -2 26 -12 18 -16 20 -16 35 -1 22 21 28 20 63 -9 28 -23 32 -24 63
-11 29 12 38 12 60 0 15 -7 29 -18 31 -24 2 -6 14 -7 34 -1 36 10 46 6 63 -27
9 -17 18 -21 32 -17 15 5 22 1 26 -14 7 -28 42 -27 110 1 60 25 68 44 21 51
-18 2 -77 21 -131 40 -54 20 -144 44 -200 52 -56 9 -129 22 -162 30 -89 22
-204 38 -222 31 -8 -4 -21 -2 -28 4 -6 5 -14 7 -18 4z m353 -292 c0 -5 29 -7
65 -4 36 2 65 0 65 -4 -1 -36 -43 -45 -104 -22 -37 14 -61 38 -37 38 6 0 11
-4 11 -8z m170 -12 c-8 -5 -17 -7 -19 -4 -3 3 1 9 9 14 8 5 17 7 19 4 3 -3 -1
-9 -9 -14z"/>
<path d="M2785 2430 c10 -11 20 -18 23 -15 7 6 -18 35 -31 35 -5 0 -2 -9 8
-20z"/>
<path d="M2180 2110 c0 -5 12 -13 26 -16 15 -4 23 -12 20 -20 -3 -9 0 -11 11
-7 13 5 11 10 -13 30 -31 25 -44 29 -44 13z"/>
<path d="M1998 3273 c7 -3 16 -2 19 1 4 3 -2 6 -13 5 -11 0 -14 -3 -6 -6z"/>
<path d="M3750 4656 c0 -3 9 -10 20 -16 11 -6 20 -8 20 -6 0 3 -9 10 -20 16
-11 6 -20 8 -20 6z"/>
<path d="M3819 4612 c14 -11 38 -27 55 -37 l31 -17 -24 20 c-14 11 -38 27 -55
37 l-31 17 24 -20z"/>
<path d="M3910 4556 c0 -2 14 -14 30 -26 17 -12 30 -19 30 -16 0 2 -13 14 -30
26 -16 12 -30 19 -30 16z"/>
<path d="M3980 4506 c0 -2 8 -10 18 -17 15 -13 16 -12 3 4 -13 16 -21 21 -21
13z"/>
<path d="M4020 4476 c0 -2 8 -10 18 -17 15 -13 16 -12 3 4 -13 16 -21 21 -21
13z"/>
<path d="M4075 4430 c10 -11 20 -20 23 -20 3 0 -3 9 -13 20 -10 11 -20 20 -23
20 -3 0 3 -9 13 -20z"/>
<path d="M4150 4365 c19 -19 36 -35 39 -35 3 0 -10 16 -29 35 -19 19 -36 35
-39 35 -3 0 10 -16 29 -35z"/>
<path d="M4260 4268 c41 -45 50 -53 50 -45 0 2 -21 23 -47 47 l-48 45 45 -47z"/>
<path d="M4370 4145 c13 -14 26 -25 28 -25 3 0 -5 11 -18 25 -13 14 -26 25
-28 25 -3 0 5 -11 18 -25z"/>
<path d="M3 2500 c0 -30 2 -43 4 -27 2 15 2 39 0 55 -2 15 -4 2 -4 -28z"/>
<path d="M12 2295 c0 -16 2 -22 5 -12 2 9 2 23 0 30 -3 6 -5 -1 -5 -18z"/>
</g>
</svg>
